<svg width="809" height="421" viewBox="0 0 809 421" fill="none" xmlns="http://www.w3.org/2000/svg">
<path d="M747.51 420.16V238.66H549.26V420.16H489.42L332.36 217.7L304.73 244L305.31 420.13H245.68L88.61 217.7L61 244L61.58 420.13H0V0H61.51V164.68L228.58 0H305.25V164.69L472.33 0H549.26V179.33H747.51V0H808.51V420.16H747.51ZM488.3 319.69V66.37L376.76 176.77L488.3 319.69ZM243.74 318.64V67.17L133 176.77L243.74 318.64Z" fill="#5CA4A9"/>
<path d="M764.68 17.17V196.5H532.09V17.17H479.37L288.62 205.17L287 210.08L288.09 191.08V17.17H235.62L44.88 205.17L43.25 210.06L44.34 191.06V17.17H17.17V403H44.34L43.79 236.7L90.53 192.15L254.09 403H288.09L287.55 236.71L334.28 192.16L497.84 403H532.09V221.49H764.68V403H791.3V17.17H764.68ZM260.91 368.56L110.09 175.3L260.91 26V368.56ZM505.47 369.56L353.83 175.3L505.47 25.21V369.56Z" fill="#5CA4A9"/>
</svg>
