<svg xmlns="http://www.w3.org/2000/svg" viewBox="0 0 808.47 420.16"><title>KKH</title><g id="Layer_2" data-name="Layer 2"><g id="Layer_1-2" data-name="Layer 1"><path d="M747.51,420.16V238.66H549.26v181.5H489.42L332.36,217.7,304.73,244l.58,176.13H245.68L88.61,217.7,61,244l.58,176.13H0V0H61.51V164.68L228.58,0h76.67V164.69L472.33,0h76.93V179.33H747.51V0h61V420.16ZM488.3,319.69V66.37L376.76,176.77Zm-244.56-1.05V67.17L133,176.77Z"/><path d="M764.68,17.17V196.5H532.09V17.17H479.37l-190.75,188L287,210.08l1.09-19V17.17H235.62l-190.74,188-1.63,4.89,1.09-19V17.17H17.17V403H44.34L43.79,236.7l46.74-44.55L254.09,403h34l-.54-166.29,46.73-44.55L497.84,403h34.25V221.49H764.68V403H791.3V17.17ZM260.91,368.56,110.09,175.3,260.91,26Zm244.56,1L353.83,175.3,505.47,25.21Z"/></g></g></svg>